<svg display="none" width="0" height="0" version="1.1" xmlns="http://www.w3.org/2000/svg" xmlns:xlink="http://www.w3.org/1999/xlink">
  <defs>
		<symbol id="extra-social-google" viewBox="0 0 16.563 14">
			<path d="M6.969,0.859 C7.090,0.930 7.226,1.033 7.376,1.169 C7.521,1.310 7.663,1.484 7.802,1.690 C7.935,1.885 8.052,2.114 8.155,2.380 C8.239,2.645 8.282,2.954 8.282,3.307 C8.270,3.956 8.119,4.474 7.826,4.863 C7.683,5.051 7.531,5.225 7.371,5.384 C7.194,5.543 7.005,5.706 6.804,5.870 C6.690,5.982 6.584,6.109 6.487,6.250 C6.372,6.398 6.315,6.569 6.315,6.763 C6.315,6.951 6.373,7.107 6.491,7.231 C6.591,7.349 6.688,7.452 6.782,7.540 L7.434,8.044 C7.839,8.357 8.194,8.701 8.500,9.078 C8.787,9.461 8.937,9.962 8.949,10.581 C8.949,11.458 8.538,12.236 7.716,12.914 C6.863,13.615 5.632,13.977 4.024,14.001 C2.678,13.989 1.672,13.718 1.009,13.189 C0.338,12.695 0.003,12.104 0.003,11.416 C0.003,11.081 0.112,10.707 0.330,10.296 C0.542,9.884 0.925,9.522 1.479,9.211 C2.102,8.876 2.756,8.652 3.441,8.540 C4.119,8.446 4.683,8.394 5.131,8.382 C4.992,8.210 4.869,8.026 4.761,7.831 C4.634,7.641 4.571,7.413 4.571,7.147 C4.571,6.987 4.595,6.853 4.643,6.747 C4.685,6.634 4.724,6.531 4.761,6.436 C4.542,6.459 4.336,6.471 4.143,6.471 C3.120,6.459 2.340,6.156 1.804,5.561 C1.242,5.007 0.961,4.362 0.961,3.626 C0.961,2.737 1.359,1.866 2.155,1.141 C2.701,0.717 3.269,0.376 3.858,0.247 C4.441,0.135 4.987,-0.000 5.498,-0.000 L9.342,-0.000 L8.154,0.859 L6.969,0.859 ZM5.032,5.978 C5.538,5.960 5.959,5.789 6.297,5.464 C6.459,5.234 6.564,4.998 6.610,4.756 C6.638,4.514 6.652,4.311 6.652,4.145 C6.652,3.431 6.458,2.710 6.071,1.984 C5.889,1.636 5.650,1.353 5.353,1.134 C5.050,0.928 4.702,0.818 4.308,0.807 C3.787,0.818 3.354,1.016 3.009,1.400 C2.718,1.801 2.578,2.250 2.591,2.746 C2.591,3.401 2.794,4.083 3.201,4.791 C3.398,5.122 3.652,5.403 3.964,5.633 C4.275,5.863 4.631,5.978 5.032,5.978 L5.032,5.978 ZM7.712,11.289 C7.712,10.829 7.552,10.429 7.234,10.087 C6.898,9.763 6.372,9.365 5.655,8.894 C5.533,8.882 5.389,8.876 5.224,8.876 C5.126,8.864 4.875,8.876 4.471,8.911 C4.073,8.964 3.666,9.050 3.250,9.167 C3.152,9.203 3.015,9.256 2.837,9.327 C2.660,9.403 2.479,9.512 2.296,9.654 C2.118,9.801 1.968,9.984 1.846,10.202 C1.705,10.431 1.635,10.708 1.635,11.032 C1.635,11.669 1.940,12.193 2.553,12.606 C3.134,13.018 3.929,13.230 4.939,13.242 C5.845,13.230 6.537,13.042 7.014,12.676 C7.479,12.317 7.712,11.854 7.712,11.289 L7.712,11.289 Z"/>
			<path d="M14.074,6.917 L14.074,4.604 L16.554,4.604 L16.554,3.007 L14.074,3.007 L14.074,0.694 L12.426,0.694 L12.426,3.007 L9.952,3.007 L9.952,4.604 L12.426,4.604 L12.426,6.917 L14.074,6.917 Z"/>
		</symbol>
		<symbol id="extra-social-twitter" viewBox="0 0 16 12">
			<path d="M16.000,1.420 L16.000,1.420 L16.000,1.420 M11.077,-0.000 C9.264,-0.000 7.794,1.356 7.794,3.029 C7.794,3.267 7.823,3.498 7.880,3.719 C5.151,3.593 2.733,2.387 1.113,0.554 C0.831,1.002 0.669,1.522 0.669,2.077 C0.669,3.128 1.249,4.055 2.129,4.599 C1.591,4.583 1.085,4.447 0.643,4.220 C0.642,4.232 0.642,4.245 0.642,4.258 C0.642,5.726 1.774,6.950 3.275,7.228 C3.000,7.298 2.710,7.335 2.411,7.335 C2.199,7.335 1.993,7.316 1.793,7.280 C2.211,8.484 3.423,9.360 4.860,9.384 C3.736,10.197 2.321,10.681 0.783,10.681 C0.518,10.681 0.256,10.667 -0.000,10.639 C1.452,11.498 3.178,12.000 5.032,12.000 C11.070,12.000 14.371,7.383 14.371,3.380 C14.371,3.249 14.368,3.118 14.362,2.988 C15.003,2.561 15.560,2.028 16.000,1.420 C15.411,1.661 14.778,1.824 14.114,1.897 C14.792,1.522 15.313,0.929 15.558,0.221 C14.924,0.568 14.221,0.820 13.473,0.956 C12.874,0.368 12.021,-0.000 11.077,-0.000 "/>
		</symbol>
		<symbol id="extra-social-facebook" viewBox="0 0 7 15">
			<path d="M7.006,-0.008 L4.824,-0.008 C4.824,-0.008 1.411,-0.368 1.411,3.211 C1.411,3.976 1.411,4.694 1.411,4.694 L0.023,4.694 L0.001,7.510 L1.411,7.510 L1.411,15.006 L4.647,15.006 L4.647,7.510 L6.515,7.510 L6.970,4.694 L4.647,4.694 L4.647,3.549 C4.647,3.549 4.448,2.581 5.598,2.581 L6.984,2.581 L7.006,-0.008 Z"/>
		</symbol>
		<symbol id="extra-social-mail" viewBox="0 0 18 11">
			<path d="M17.953,10.169 C17.745,9.983 17.534,9.800 17.327,9.612 C15.969,8.371 14.611,7.129 13.253,5.889 C13.036,5.690 12.807,5.648 12.586,5.762 C12.390,5.863 12.282,6.074 12.348,6.284 C12.379,6.383 12.446,6.482 12.525,6.555 C13.739,7.669 14.960,8.776 16.173,9.891 C16.532,10.222 16.870,10.574 17.237,10.936 C17.060,10.956 16.864,10.995 16.669,10.995 C13.116,10.999 9.562,10.998 6.009,10.998 C4.458,10.998 2.907,11.000 1.355,10.996 C1.181,10.995 1.007,10.964 0.883,10.952 C1.395,10.446 1.888,9.933 2.410,9.447 C3.388,8.536 4.381,7.640 5.368,6.739 C5.432,6.681 5.501,6.629 5.561,6.568 C5.781,6.347 5.789,6.079 5.586,5.882 C5.383,5.685 5.071,5.686 4.837,5.892 C4.594,6.107 4.357,6.329 4.118,6.548 C2.892,7.668 1.666,8.789 0.439,9.910 C0.328,10.011 0.211,10.108 0.059,10.241 C0.035,10.089 0.002,9.974 0.002,9.859 C-0.001,6.952 -0.001,4.045 0.001,1.137 C0.001,1.031 0.027,0.924 0.047,0.774 C0.178,0.872 0.283,0.947 0.384,1.026 C2.820,2.911 5.255,4.797 7.691,6.683 C7.991,6.915 8.288,7.150 8.590,7.379 C8.880,7.600 9.094,7.599 9.378,7.383 C12.176,5.256 14.973,3.128 17.771,1.002 C17.834,0.954 17.900,0.912 18.000,0.842 C18.000,3.965 18.000,7.055 18.000,10.144 C17.984,10.153 17.969,10.161 17.953,10.169 ZM0.742,0.064 C0.940,0.038 1.086,0.002 1.231,0.001 C6.418,-0.001 11.605,-0.002 16.792,0.002 C16.958,0.002 17.123,0.045 17.289,0.067 C17.294,0.087 17.300,0.106 17.305,0.126 C14.538,2.229 11.771,4.331 8.987,6.447 C6.245,4.324 3.516,2.212 0.742,0.064 Z"/>
		</symbol>
	</defs>
</svg>
